<svg id="Layer_1" data-name="Layer 1" xmlns="http://www.w3.org/2000/svg" viewBox="0 0 988.29 313.01"><defs><style>.cls-1{fill:#243358;}</style></defs><path class="cls-1" d="M767.48,109.26l-4.3-6.81c-.5,0-.9.06-1.21.06h-5.51v6.75h-3V87.59H762a9.56,9.56,0,0,1,6.36,1.91,6.65,6.65,0,0,1,2.24,5.4,7.64,7.64,0,0,1-1.22,4.42,6.81,6.81,0,0,1-3.51,2.6l5,7.34ZM762,99.82a6.53,6.53,0,0,0,4.27-1.23,4.38,4.38,0,0,0,1.49-3.6,4.22,4.22,0,0,0-1.49-3.51,6.64,6.64,0,0,0-4.27-1.2h-5.51v9.54Z"/><path class="cls-1" d="M432.82,158.63H416.41V116.89l-18.56,30.46H396l-18.57-30.46v41.74H361V86.84h16.41l19.49,31.89,19.48-31.89h16.41Z"/><path class="cls-1" d="M470.67,146.32a13.37,13.37,0,0,0,9.84-3.9l12.31,7.08c-5,7-12.61,10.56-22.36,10.56-17.53,0-28.4-11.79-28.4-27.07s11.07-27.08,27.28-27.08c15,0,26.05,11.59,26.05,27.08a29.83,29.83,0,0,1-.62,6.15H458.36C460.31,144.47,465,146.32,470.67,146.32Zm9.43-18.67c-1.64-5.94-6.25-8.1-10.87-8.1-5.84,0-9.74,2.87-11.18,8.1Z"/><path class="cls-1" d="M556.2,86.84v71.79H540.82v-4.82c-3.38,3.89-8.41,6.25-15.28,6.25C512.1,160.06,501,148.27,501,133s11.07-27.08,24.51-27.08c6.87,0,11.9,2.36,15.28,6.26V86.84ZM540.82,133c0-7.69-5.13-12.52-12.2-12.52S516.41,125.3,516.41,133s5.13,12.51,12.21,12.51S540.82,140.68,540.82,133Z"/><path class="cls-1" d="M566,93.6a9.23,9.23,0,1,1,9.23,9.24A9.32,9.32,0,0,1,566,93.6Zm1.54,13.75h15.38v51.28H567.49Z"/><path class="cls-1" d="M591.59,133c0-15.28,11.59-27.08,27.18-27.08A26.41,26.41,0,0,1,641.94,119l-13.43,7.79c-1.74-3.59-5.44-5.74-10-5.74-6.67,0-11.59,4.82-11.59,11.9s4.92,11.89,11.59,11.89c4.51,0,8.31-2.15,10-5.74l13.43,7.69a26.17,26.17,0,0,1-23.17,13.23C603.18,160.06,591.59,148.27,591.59,133Z"/><path class="cls-1" d="M699.68,107.35v51.28H684.3v-4.82c-3.38,3.89-8.41,6.25-15.28,6.25-13.44,0-24.51-11.79-24.51-27.07s11.07-27.08,24.51-27.08c6.87,0,11.9,2.36,15.28,6.26v-4.82ZM684.3,133c0-7.69-5.13-12.52-12.2-12.52S659.89,125.3,659.89,133,665,145.5,672.1,145.5,684.3,140.68,684.3,133Z"/><path class="cls-1" d="M711,83.76h15.38v74.87H711Z"/><path class="cls-1" d="M377.44,182.91v71.8H361v-71.8Z"/><path class="cls-1" d="M441.85,182.91v71.8H426.47v-4.82c-3.39,3.89-8.41,6.25-15.29,6.25-13.43,0-24.51-11.79-24.51-27.07S397.75,202,411.18,202c6.88,0,11.9,2.36,15.29,6.26V182.91Zm-15.38,46.16c0-7.7-5.13-12.52-12.21-12.52s-12.2,4.82-12.2,12.52,5.12,12.51,12.2,12.51S426.47,236.76,426.47,229.07Z"/><path class="cls-1" d="M479.18,242.4a13.38,13.38,0,0,0,9.85-3.9l12.3,7.08c-5,7-12.61,10.56-22.35,10.56-17.54,0-28.41-11.79-28.41-27.07S461.64,202,477.85,202c15,0,26,11.59,26,27.08a29.83,29.83,0,0,1-.62,6.15H466.87C468.82,240.55,473.54,242.4,479.18,242.4Zm9.44-18.67c-1.64-5.95-6.26-8.1-10.87-8.1-5.85,0-9.75,2.87-11.18,8.1Z"/><path class="cls-1" d="M561.84,223.22v31.49H546.46V225.48c0-6.36-4-9.34-8.92-9.34-5.64,0-9.54,3.29-9.54,10.57v28H512.62V203.43H528v4.82c2.77-3.8,7.9-6.26,14.67-6.26C553,202,561.84,209.37,561.84,223.22Z"/><path class="cls-1" d="M591.89,218.19v18.16c0,4.41,3.8,4.82,10.57,4.41v14c-20.1,2-26-4-26-18.36V218.19h-8.2V203.43h8.2v-9.75l15.38-4.61v14.36h10.57v14.76Z"/><path class="cls-1" d="M609.64,189.68a9.23,9.23,0,1,1,9.23,9.23A9.32,9.32,0,0,1,609.64,189.68Zm1.54,13.75h15.38v51.28H611.18Z"/><path class="cls-1" d="M685,254.71H669.63V218.19H656.51v36.52H641.12V218.19h-6.87V203.43h6.87c0-14.36,7.9-22,24.92-22a62.32,62.32,0,0,1,12.82,1.43v14.16a116,116,0,0,0-12.82-.82c-5.74,0-9.53,1.23-9.53,7.18H685Z"/><path class="cls-1" d="M693.74,229.07c0-15.29,11.58-27.08,27.17-27.08a26.42,26.42,0,0,1,23.18,13.13l-13.43,7.79c-1.75-3.59-5.44-5.74-9.95-5.74-6.67,0-11.59,4.82-11.59,11.9S714,241,720.71,241c4.51,0,8.31-2.15,9.95-5.74l13.43,7.69a26.18,26.18,0,0,1-23.18,13.23C705.32,256.14,693.74,244.35,693.74,229.07Z"/><path class="cls-1" d="M801.83,203.43v51.28H786.45v-4.82c-3.39,3.89-8.41,6.25-15.28,6.25-13.44,0-24.51-11.79-24.51-27.07S757.73,202,771.17,202c6.87,0,11.89,2.36,15.28,6.26v-4.82Zm-15.38,25.64c0-7.7-5.13-12.52-12.21-12.52S762,221.37,762,229.07s5.13,12.51,12.2,12.51S786.45,236.76,786.45,229.07Z"/><path class="cls-1" d="M832.6,218.19v18.16c0,4.41,3.8,4.82,10.56,4.41v14c-20.1,2-25.94-4-25.94-18.36V218.19H809V203.43h8.21v-9.75l15.38-4.61v14.36h10.56v14.76Z"/><path class="cls-1" d="M850.34,189.68a9.23,9.23,0,1,1,9.23,9.23A9.33,9.33,0,0,1,850.34,189.68Zm1.54,13.75h15.39v51.28H851.88Z"/><path class="cls-1" d="M876,229.07a27.18,27.18,0,1,1,27.18,27.07A26.88,26.88,0,0,1,876,229.07Zm39,0c0-7.29-5.13-12.11-11.8-12.11s-11.79,4.82-11.79,12.11,5.12,12.1,11.79,12.1S915,236.35,915,229.07Z"/><path class="cls-1" d="M988.29,223.22v31.49H972.9V225.48c0-6.36-4-9.34-8.92-9.34-5.64,0-9.54,3.29-9.54,10.57v28H939.06V203.43h15.38v4.82c2.77-3.8,7.9-6.26,14.67-6.26C979.47,202,988.29,209.37,988.29,223.22Z"/><path class="cls-1" d="M99,287.5a2.77,2.77,0,0,0,.49,0,3.43,3.43,0,0,0,3.39-2.94c5.28-37,27.91-63.85,53.8-63.85,12.05,0,23.5,5.64,33.13,16.29a3.42,3.42,0,1,0,5.08-4.59c-11-12.14-24.17-18.55-38.21-18.55-29.33,0-54.82,29.32-60.59,69.73A3.43,3.43,0,0,0,99,287.5Z"/><circle class="cls-1" cx="156.59" cy="98.77" r="57.67" transform="translate(-18.5 38.62) rotate(-13.28)"/><path class="cls-1" d="M156.52,0C70.22,0,0,70.2,0,156.49a156.39,156.39,0,0,0,55.19,119.3c2,1.7,4.06,3.36,6.09,4.9,2.22,1.73,4.1,3.09,5.79,4.22,2,1.39,4.05,2.79,6.42,4.29,1.59,1,3.21,2,4.83,2.91l1.43.8c1.19.66,2.37,1.31,3.59,2l2.72,1.43,2.43,1.24c1.68.79,3.35,1.54,5.06,2.28s3.69,1.59,5.59,2.35c2.12.84,3.79,1.45,5.26,1.93,1.2.45,2.44.86,3.53,1.19.87.3,1.78.57,2.61.82,1.34.45,2.71.84,4.06,1.23l.88.25.59.16c2.13.56,4.21,1.07,6.19,1.51l.53.11.3.08c.82.18,1.64.33,2.46.49l2.12.42c.43.09.87.16,1.3.24l1.28.23c1,.17,2.06.34,3,.47,1.79.26,3.54.49,5.27.68,1.32.17,2.64.3,4,.43l.55,0c1.31.15,2.57.23,3.8.3l1.45.09.83,0,.82,0,1.32,0,1.05,0c.38,0,.78,0,1.16,0,.71,0,1.42,0,2.13,0h2.19c1,0,2,0,3-.06l2.79-.07h.26c1.15-.09,2.31-.15,3.45-.21h.21c2.64-.21,5.77-.47,8.85-.89,1.82-.23,3.58-.47,5.33-.76,2.23-.35,4-.68,5.57-1.06.57-.09,1.13-.19,1.7-.31,1.29-.22,2.52-.51,3.68-.8,1.88-.43,3.77-.93,5.72-1.45a8.64,8.64,0,0,0,.83-.24c1.74-.51,3.48-1.05,5.13-1.57a11.35,11.35,0,0,0,1.12-.38c1.62-.5,3.35-1.11,5-1.77s3.6-1.33,5.26-2,3.3-1.36,4.88-2l.74-.33c1.17-.53,2.32-1.09,3.47-1.66l1.57-.76.4-.2,1.21-.62c1.21-.63,2.42-1.26,3.59-1.93l2-1.08c1-.57,2-1.18,3-1.79s2.14-1.3,3.17-2c2.34-1.45,4.47-2.87,6.45-4.29s4-2.85,5.8-4.25c2.33-1.8,4.26-3.37,6-4.91a156.25,156.25,0,0,0,55-119.07C313,70.2,242.81,0,156.52,0Zm86.2,276.48c-5.64-26.46-16.85-50.14-32.29-66.91a3.49,3.49,0,0,0-4.88-.23,3.41,3.41,0,0,0-.16,4.82c15.17,16.56,26,40.13,31.16,66.53-.5.31-.9.62-1.42.94-1,.65-2,1.27-3.14,1.94l-1.25.76c-7.65-48.92-37.92-85.58-74.06-85.58-16.21,0-31.62,7.22-44.66,20.83a3.45,3.45,0,0,0,.13,4.88,3.39,3.39,0,0,0,4.81-.12c11.69-12.27,25.43-18.72,39.72-18.72,33.37,0,61.24,35.35,67.7,82.2l-.38.2-.88.46-.39.2-1.75.85c-1.07.52-2.13,1-3.17,1.51l-.7.31c-1.49.65-3,1.31-4.65,2s-3.26,1.32-5,1.94c-1.14.45-2.17.78-3.22,1.14,0-1.05.06-2.05.06-2.93,0-35.53-21.36-64.43-47.6-64.43-16.94,0-32.71,12.28-41.19,32.07a3.43,3.43,0,0,0,6.3,2.69c7.39-17.21,20.74-27.9,34.89-27.9,22.46,0,40.74,25.82,40.74,57.57,0,1.43-.06,3.21-.14,5.15l-.67.21-.31.09L196,299c-1.74.46-3.52.93-5.38,1.36l-1.1.24c.33-7,.51-12.38.51-14.64a50.56,50.56,0,0,0-5-22.06,3.46,3.46,0,0,0-6.2,3.09,42.58,42.58,0,0,1,4.3,19c0,3.05-.21,8.86-.57,16.05-.71.13-1.43.26-2.3.4-1.67.28-3.32.49-5.07.71-.78.11-1.56.18-2.34.27.22-4.77.42-10.43.67-18.05l.09-.67a17,17,0,0,0-34,0,3.44,3.44,0,0,0,6.87,0,10.11,10.11,0,0,1,10.11-10.11c5.49,0,8.94,3.31,9.16,9.95,0,3.54-.32,10.6-.62,19.55l-1.9.12-2.72.06-2.82.06h-.31c.26-2.91.47-5.83.91-8.71a3.46,3.46,0,0,0-2.88-3.94,3.42,3.42,0,0,0-3.9,2.9c-.48,3.19-.71,6.42-1,9.64h-.2l-1,0-.67,0-.51,0-.86-.05c-1.22-.07-2.38-.13-3.5-.27l-.7,0c-1.21-.12-2.39-.24-3.62-.39-1.68-.19-3.33-.41-5.09-.67-.95-.12-1.89-.27-2.66-.4l-1.09-.2c-.36-7.24-.57-13.06-.57-16.11,0-19.29,11.88-34.93,26.52-34.93a20.55,20.55,0,0,1,8.45,1.83,3.43,3.43,0,0,0,2.79-6.26,27.52,27.52,0,0,0-11.24-2.44c-18.43,0-33.39,18.75-33.39,41.8,0,2.26.18,7.69.5,14.71q-2.69-.6-5.54-1.36l-.32-.08-.53-.15L117,299l-.93-.28c-.08-1.9-.12-3.68-.12-5.22a84.86,84.86,0,0,1,.54-9.73,3.36,3.36,0,0,0-3-3.77,3.41,3.41,0,0,0-3.82,3,89.49,89.49,0,0,0-.63,10.52c0,.82,0,1.89.07,3-.61-.2-1.2-.38-1.86-.63-1.46-.47-3-1-4.9-1.79s-3.53-1.44-5.32-2.24-3.26-1.44-4.76-2.14l-2.14-1.09L89,288a130.63,130.63,0,0,1,11.5-39.44,3.37,3.37,0,0,0-1.6-4.56,3.43,3.43,0,0,0-4.59,1.6,137.19,137.19,0,0,0-11.7,38.93c-1.5-.87-3-1.79-4.47-2.7-.52-.33-.93-.64-1.42-.95,10.08-52.14,42.09-90.38,80-90.38,12.3,0,24.18,4,35.29,11.82a3.43,3.43,0,0,0,3.95-5.62c-12.3-8.7-25.49-13-39.24-13-40.42,0-74.67,39.25-86.08,93.09-1.22-.86-2.5-1.79-4-3-.5-.38-1-.81-1.49-1.2,13.7-56.69,49.52-97.24,91.58-97.24s77.76,40.47,91.52,97l-1.52,1.2C245.46,274.52,244.09,275.5,242.72,276.48Zm11.23-9c-15.12-57.83-53-98.92-97.27-98.92s-82.25,41.22-97.39,99.14A147.56,147.56,0,0,1,8.72,156.49C8.72,75,75,8.72,156.52,8.72S304.29,75,304.29,156.49A147.52,147.52,0,0,1,254,267.45Z"/><path class="cls-1" d="M760.58,117A18.89,18.89,0,1,1,779.47,98.1,18.91,18.91,0,0,1,760.58,117Zm0-35.16A16.27,16.27,0,1,0,776.85,98.1,16.29,16.29,0,0,0,760.58,81.83Z"/></svg>